<svg width="189" height="24" viewBox="0 0 189 24" fill="none" xmlns="http://www.w3.org/2000/svg">
<path d="M8.112 23V5.4H0.176V0.599998H21.616V5.4H13.552V23H8.112ZM37.0293 23.32C35.3653 23.32 33.8399 23.1493 32.4533 22.808C31.0879 22.4667 29.8613 21.9973 28.7733 21.4C27.6853 20.8027 26.7039 20.088 25.8293 19.256L28.6773 15.16C30.1066 16.504 31.5466 17.4427 32.9973 17.976C34.4693 18.488 35.9199 18.744 37.3493 18.744C38.0106 18.744 38.6506 18.6693 39.2693 18.52C39.9093 18.3707 40.4319 18.136 40.8373 17.816C41.2639 17.496 41.4773 17.0693 41.4773 16.536C41.4773 16.1947 41.3706 15.9067 41.1573 15.672C40.9439 15.416 40.6559 15.2027 40.2933 15.032C39.9306 14.84 39.5039 14.6907 39.0133 14.584C38.5439 14.4773 38.0319 14.3813 37.4773 14.296C36.9226 14.2107 36.3466 14.1253 35.7493 14.04C34.3839 13.848 33.1573 13.5707 32.0693 13.208C31.0026 12.824 30.0853 12.3547 29.3173 11.8C28.5706 11.224 28.0053 10.552 27.6213 9.784C27.2373 9.016 27.0453 8.13067 27.0453 7.128C27.0453 6.04 27.3013 5.05867 27.8133 4.184C28.3253 3.30933 29.0399 2.57333 29.9573 1.976C30.8746 1.35733 31.9199 0.887999 33.0933 0.567999C34.2879 0.247999 35.5679 0.0879993 36.9333 0.0879993C38.4693 0.0879993 39.8239 0.237333 40.9973 0.535999C42.1919 0.834666 43.2373 1.25067 44.1333 1.784C45.0293 2.31733 45.7759 2.91467 46.3733 3.576L43.4293 7.128C42.8746 6.616 42.2346 6.17867 41.5093 5.816C40.8053 5.45333 40.0586 5.176 39.2693 4.984C38.4799 4.792 37.6906 4.696 36.9013 4.696C36.0693 4.696 35.3439 4.78133 34.7253 4.952C34.1066 5.10133 33.6159 5.32533 33.2533 5.624C32.8906 5.92267 32.7093 6.30667 32.7093 6.776C32.7093 7.16 32.8586 7.49067 33.1573 7.768C33.4773 8.04533 33.8826 8.28 34.3733 8.472C34.8639 8.64267 35.4079 8.78133 36.0053 8.888C36.6239 8.99467 37.2319 9.09067 37.8293 9.176C39.0666 9.34667 40.2399 9.58133 41.3493 9.88C42.4799 10.1573 43.4719 10.5413 44.3253 11.032C45.1999 11.5227 45.8719 12.1627 46.3413 12.952C46.8319 13.72 47.0773 14.712 47.0773 15.928C47.0773 17.4853 46.6399 18.8187 45.7653 19.928C44.9119 21.016 43.7279 21.8587 42.2133 22.456C40.7199 23.032 38.9919 23.32 37.0293 23.32ZM57.7203 17.112L56.4083 12.504L70.2003 0.599998H76.9523L57.7203 17.112ZM53.9763 23V0.599998H59.4163V23H53.9763ZM70.6803 23L61.6883 11.672L65.1123 8.216L77.1763 23H70.6803Z" fill="white"/>
<path d="M93.8823 23.192C91.7276 23.192 89.8289 22.7653 88.1863 21.912C86.5649 21.0587 85.2956 19.8747 84.3783 18.36C83.4823 16.8453 83.0343 15.128 83.0343 13.208V0.599998H88.5383V13.016C88.5383 14.0613 88.7623 14.9893 89.2103 15.8C89.6796 16.6107 90.3196 17.24 91.1303 17.688C91.9409 18.136 92.8583 18.36 93.8823 18.36C94.9276 18.36 95.8663 18.136 96.6983 17.688C97.5303 17.24 98.1809 16.6107 98.6503 15.8C99.1409 14.9893 99.3863 14.0613 99.3863 13.016V0.599998H104.698V13.208C104.698 15.128 104.24 16.8453 103.322 18.36C102.426 19.8747 101.157 21.0587 99.5143 21.912C97.8929 22.7653 96.0156 23.192 93.8823 23.192ZM113.133 23V0.599998H125.005C126.477 0.599998 127.789 0.919999 128.941 1.56C130.114 2.2 131.042 3.07467 131.725 4.184C132.407 5.29333 132.749 6.54133 132.749 7.928C132.749 9.42133 132.386 10.7547 131.661 11.928C130.957 13.08 129.997 13.9973 128.781 14.68C127.565 15.3627 126.189 15.704 124.653 15.704H118.573V23H113.133ZM118.477 10.936H123.757C124.375 10.936 124.93 10.808 125.421 10.552C125.933 10.296 126.338 9.95467 126.637 9.528C126.935 9.08 127.085 8.57867 127.085 8.024C127.085 7.46933 126.935 7 126.637 6.616C126.338 6.232 125.933 5.93333 125.421 5.72C124.93 5.50667 124.375 5.4 123.757 5.4H118.477V10.936ZM140.039 23V0.599998H150.855C152.775 0.599998 154.481 0.887999 155.975 1.464C157.489 2.04 158.78 2.84 159.847 3.864C160.913 4.888 161.724 6.08267 162.279 7.448C162.855 8.792 163.143 10.2427 163.143 11.8C163.143 13.3787 162.855 14.8507 162.279 16.216C161.724 17.56 160.913 18.744 159.847 19.768C158.801 20.7707 157.511 21.56 155.975 22.136C154.46 22.712 152.753 23 150.855 23H140.039ZM145.479 19.288L144.743 18.2H150.695C151.825 18.2 152.817 18.04 153.671 17.72C154.545 17.3787 155.26 16.92 155.815 16.344C156.391 15.7467 156.817 15.064 157.095 14.296C157.393 13.5067 157.543 12.6747 157.543 11.8C157.543 10.9253 157.393 10.104 157.095 9.336C156.817 8.568 156.391 7.896 155.815 7.32C155.239 6.72267 154.524 6.25333 153.671 5.912C152.817 5.57067 151.825 5.4 150.695 5.4H144.647L145.479 4.376V19.288ZM175.112 23V5.4H167.176V0.599998H188.616V5.4H180.552V23H175.112Z" fill="#697565"/>
</svg>
