<svg width="40" height="40" viewBox="0 0 40 40" fill="none" xmlns="http://www.w3.org/2000/svg">
<rect width="40" height="40" fill="#697565"/>
<path d="M4.871 28V23.239H2.603V21.7H8.975V23.239H6.653V28H4.871Z" fill="white"/>
<path d="M14.762 28.09C14.264 28.09 13.811 28.042 13.403 27.946C12.995 27.85 12.632 27.718 12.314 27.55C11.996 27.382 11.711 27.19 11.459 26.974L12.323 25.669C12.761 26.029 13.199 26.278 13.637 26.416C14.075 26.548 14.483 26.614 14.861 26.614C15.011 26.614 15.158 26.602 15.302 26.578C15.452 26.548 15.578 26.5 15.68 26.434C15.782 26.368 15.833 26.272 15.833 26.146C15.833 26.062 15.806 25.993 15.752 25.939C15.698 25.879 15.623 25.831 15.527 25.795C15.437 25.753 15.329 25.72 15.203 25.696C15.083 25.666 14.948 25.642 14.798 25.624C14.648 25.6 14.489 25.579 14.321 25.561C13.925 25.507 13.571 25.426 13.259 25.318C12.947 25.21 12.683 25.075 12.467 24.913C12.251 24.751 12.086 24.562 11.972 24.346C11.864 24.124 11.81 23.869 11.81 23.581C11.81 23.263 11.885 22.978 12.035 22.726C12.185 22.468 12.395 22.252 12.665 22.078C12.935 21.898 13.244 21.763 13.592 21.673C13.946 21.583 14.318 21.538 14.708 21.538C15.17 21.538 15.572 21.58 15.914 21.664C16.256 21.742 16.553 21.853 16.805 21.997C17.057 22.135 17.27 22.291 17.444 22.465L16.544 23.59C16.382 23.47 16.196 23.368 15.986 23.284C15.782 23.2 15.569 23.137 15.347 23.095C15.125 23.047 14.912 23.023 14.708 23.023C14.498 23.023 14.315 23.038 14.159 23.068C14.009 23.098 13.886 23.146 13.79 23.212C13.7 23.272 13.655 23.356 13.655 23.464C13.655 23.56 13.7 23.641 13.79 23.707C13.886 23.767 14.003 23.818 14.141 23.86C14.285 23.896 14.432 23.926 14.582 23.95C14.738 23.968 14.879 23.986 15.005 24.004C15.353 24.046 15.686 24.106 16.004 24.184C16.328 24.262 16.613 24.373 16.859 24.517C17.111 24.655 17.306 24.841 17.444 25.075C17.588 25.309 17.66 25.609 17.66 25.975C17.66 26.425 17.531 26.809 17.273 27.127C17.021 27.439 16.676 27.679 16.238 27.847C15.8 28.009 15.308 28.09 14.762 28.09Z" fill="white"/>
<path d="M22.367 26.38L21.836 24.985L25.643 21.7H27.785L22.367 26.38ZM21.17 28V21.7H22.952V28H21.17ZM25.814 28L23.321 24.868L24.419 23.779L27.902 28H25.814Z" fill="white"/>
<path d="M6.257 37.054C5.645 37.054 5.102 36.934 4.628 36.694C4.16 36.454 3.794 36.121 3.53 35.695C3.272 35.269 3.143 34.786 3.143 34.246V30.7H4.943V34.192C4.943 34.456 5 34.687 5.114 34.885C5.228 35.083 5.384 35.236 5.582 35.344C5.78 35.452 6.005 35.506 6.257 35.506C6.521 35.506 6.755 35.452 6.959 35.344C7.169 35.236 7.331 35.083 7.445 34.885C7.565 34.687 7.625 34.456 7.625 34.192V30.7H9.371V34.246C9.371 34.786 9.239 35.269 8.975 35.695C8.717 36.121 8.354 36.454 7.886 36.694C7.424 36.934 6.881 37.054 6.257 37.054Z" fill="white"/>
<path d="M13.17 37V30.7H16.581C17.013 30.7 17.4 30.793 17.742 30.979C18.084 31.159 18.354 31.408 18.552 31.726C18.756 32.044 18.858 32.41 18.858 32.824C18.858 33.262 18.753 33.652 18.543 33.994C18.339 34.33 18.057 34.597 17.697 34.795C17.337 34.993 16.932 35.092 16.482 35.092H14.952V37H13.17ZM14.925 33.553H16.14C16.308 33.553 16.455 33.526 16.581 33.472C16.707 33.418 16.809 33.337 16.887 33.229C16.965 33.121 17.004 32.995 17.004 32.851C17.004 32.713 16.965 32.599 16.887 32.509C16.809 32.419 16.707 32.353 16.581 32.311C16.455 32.263 16.308 32.239 16.14 32.239H14.925V33.553Z" fill="white"/>
<path d="M22.17 37V30.7H25.293C25.839 30.7 26.328 30.781 26.76 30.943C27.198 31.105 27.57 31.333 27.876 31.627C28.182 31.915 28.416 32.251 28.578 32.635C28.746 33.013 28.83 33.418 28.83 33.85C28.83 34.288 28.746 34.699 28.578 35.083C28.416 35.467 28.182 35.803 27.876 36.091C27.57 36.373 27.198 36.595 26.76 36.757C26.328 36.919 25.839 37 25.293 37H22.17ZM23.952 35.866L23.673 35.461H25.248C25.536 35.461 25.791 35.419 26.013 35.335C26.235 35.245 26.418 35.125 26.562 34.975C26.706 34.825 26.814 34.654 26.886 34.462C26.964 34.27 27.003 34.066 27.003 33.85C27.003 33.634 26.964 33.43 26.886 33.238C26.814 33.046 26.703 32.875 26.553 32.725C26.409 32.575 26.226 32.458 26.004 32.374C25.788 32.284 25.536 32.239 25.248 32.239H23.646L23.952 31.852V35.866Z" fill="white"/>
<path d="M33.871 37V32.239H31.603V30.7H37.975V32.239H35.653V37H33.871Z" fill="white"/>
</svg>
     